# xmcd CD database file
#
# Track frame offsets:
#	150
#	16626
#	37755
#	52511
#	70554
#	89648
#	112491
#	130456
#	149626
#	167310
#	200874
#	217563
#	231673
#
# Disc length: 3335 seconds
#
# Revision: 2
# Processed by: cddbd v1.5.2PL0 Copyright (c) Steve Scherf et al.
# Submitted via: CDex 1.51
#
DISCID=b20d050d
DTITLE=Various Artist - ZM-CB-01
DYEAR=1900
DGENRE=Blues
TTITLE0=Robbie Williams - Minnie The Moocher
TTITLE1=Steve Earle - Copperhead Road
TTITLE2=Robbie Williams - Supreme/Swing Version
TTITLE3=Robert Palmer - Johnny And Mary
TTITLE4=John Holt - Killing Me Softly With Her Song
TTITLE5=Stevie Wonder - Stevie Wonder Stars On 45 Medley Part 2
TTITLE6=Lou Rawls - You'll Never Find Another Love
TTITLE7=Caro Emerald - Liquid Lunch
TTITLE8=Neil Diamond - Sweet Caroline/Hot August Night
TTITLE9=USA For Africa - We Are The World
TTITLE10=Sylvia - Y Viva Espana
TTITLE11=Etta James - At Last
TTITLE12=Inner Circle - Sweat (LaLaLa Long)
EXTD=
EXTT0=
EXTT1=
EXTT2=
EXTT3=
EXTT4=
EXTT5=
EXTT6=
EXTT7=
EXTT8=
EXTT9=
EXTT10=
EXTT11=
EXTT12=
PLAYORDER=
